<svg aria-hidden="true" style="position: absolute; width: 0; height: 0; overflow: hidden;" version="1.1" xmlns="http://www.w3.org/2000/svg" xmlns:xlink="http://www.w3.org/1999/xlink">
<defs>
<symbol id="icon-analysis" viewBox="0 0 32 32">
<path fill="#fff" style="fill: var(--color1, #fff)" d="M31.817 5.87l-5.688-5.687c-0.117-0.117-0.276-0.183-0.442-0.183h-18.563c-1.034 0-1.875 0.841-1.875 1.875v1.192c-3.070 1.204-5.25 4.197-5.25 7.689 0 0.345 0.28 0.625 0.625 0.625h7.631c0.345 0 0.625-0.28 0.625-0.625v-7.631c0-0.345-0.28-0.625-0.625-0.625-0.602 0-1.19 0.065-1.756 0.189v-0.814c0-0.345 0.28-0.625 0.625-0.625h17.938v3.813c0 1.034 0.841 1.875 1.875 1.875h3.813v23.188c0 0.345-0.28 0.625-0.625 0.625h-23c-0.345 0-0.625-0.28-0.625-0.625v-5.354c0-0.345-0.28-0.625-0.625-0.625s-0.625 0.28-0.625 0.625v5.354c0 1.034 0.841 1.875 1.875 1.875h23c1.034 0 1.875-0.841 1.875-1.875v-23.813c0-0.166-0.066-0.325-0.183-0.442zM7.631 3.778v6.353h-6.353c0.299-3.365 2.988-6.054 6.353-6.353zM26.937 5.688c-0.345 0-0.625-0.28-0.625-0.625v-2.929l3.554 3.554h-2.929z"></path>
<path fill="#fff" style="fill: var(--color1, #fff)" d="M6.317 22.058c-0.116-0.116-0.277-0.183-0.442-0.183s-0.326 0.067-0.442 0.183c-0.116 0.116-0.183 0.277-0.183 0.442s0.067 0.326 0.183 0.442c0.116 0.116 0.277 0.183 0.442 0.183s0.326-0.067 0.442-0.183c0.116-0.116 0.183-0.277 0.183-0.442s-0.067-0.326-0.183-0.442z"></path>
<path fill="#fff" style="fill: var(--color1, #fff)" d="M10.495 4.739c-0.345 0-0.625 0.28-0.625 0.625v7.006h-7.006c-0.345 0-0.625 0.28-0.625 0.625 0 4.552 3.703 8.256 8.256 8.256s8.256-3.703 8.256-8.256-3.704-8.256-8.256-8.256zM11.12 6.016c1.463 0.13 2.798 0.712 3.865 1.604l-3.865 3.865v-5.469zM10.495 20c-3.652 0-6.661-2.809-6.978-6.381h6.978c0.173 0 0.329-0.070 0.442-0.183 0-0 0-0 0-0l4.932-4.932c1.018 1.217 1.632 2.783 1.632 4.49 0 3.863-3.143 7.006-7.006 7.006z"></path>
<path fill="#fff" style="fill: var(--color1, #fff)" d="M27.38 19.725c-1.034 0-1.875 0.841-1.875 1.875 0 0.259 0.053 0.506 0.148 0.731l-3.601 3.601c-0.247-0.121-0.525-0.188-0.818-0.188-0.286 0-0.558 0.065-0.801 0.18l-2.391-2.391c0.083-0.211 0.129-0.441 0.129-0.682 0-1.034-0.841-1.875-1.875-1.875s-1.875 0.841-1.875 1.875c0 0.28 0.062 0.546 0.173 0.785l-2.293 2.293c-0.244-0.117-0.518-0.182-0.806-0.182-1.034 0-1.875 0.841-1.875 1.875s0.841 1.875 1.875 1.875c1.034 0 1.875-0.841 1.875-1.875 0-0.29-0.066-0.564-0.184-0.81l2.281-2.281c0.25 0.124 0.532 0.194 0.83 0.194 0.337 0 0.652-0.090 0.926-0.245l2.324 2.324c-0.119 0.247-0.187 0.523-0.187 0.815 0 1.034 0.841 1.875 1.875 1.875s1.875-0.841 1.875-1.875c0-0.285-0.064-0.555-0.178-0.797l3.567-3.567c0.263 0.141 0.563 0.221 0.882 0.221 1.034 0 1.875-0.841 1.875-1.875s-0.841-1.875-1.875-1.875zM11.494 28.246c-0.345 0-0.625-0.28-0.625-0.625s0.28-0.625 0.625-0.625c0.168 0 0.32 0.067 0.432 0.175 0.002 0.003 0.005 0.005 0.007 0.008s0.006 0.006 0.009 0.008c0.109 0.113 0.176 0.265 0.176 0.434 0 0.345-0.28 0.625-0.625 0.625zM16.296 23.475c-0.345 0-0.625-0.28-0.625-0.625s0.28-0.625 0.625-0.625c0.345 0 0.625 0.28 0.625 0.625s-0.28 0.625-0.625 0.625zM21.234 28.244c-0.345 0-0.625-0.28-0.625-0.625s0.28-0.625 0.625-0.625c0.345 0 0.625 0.28 0.625 0.625s-0.28 0.625-0.625 0.625zM27.38 22.225c-0.345 0-0.625-0.28-0.625-0.625s0.28-0.625 0.625-0.625c0.345 0 0.625 0.28 0.625 0.625s-0.28 0.625-0.625 0.625z"></path>
<path fill="#fff" style="fill: var(--color1, #fff)" d="M24.256 14.688h-3.299c-0.345 0-0.625 0.28-0.625 0.625s0.28 0.625 0.625 0.625h3.299c0.345 0 0.625-0.28 0.625-0.625s-0.28-0.625-0.625-0.625z"></path>
<path fill="#fff" style="fill: var(--color1, #fff)" d="M27.544 14.871c-0.116-0.116-0.277-0.183-0.442-0.183s-0.326 0.067-0.442 0.183c-0.116 0.116-0.183 0.277-0.183 0.442s0.067 0.326 0.183 0.442c0.116 0.116 0.277 0.183 0.442 0.183s0.326-0.067 0.442-0.183c0.116-0.116 0.183-0.277 0.183-0.442s-0.067-0.326-0.183-0.442z"></path>
<path fill="#fff" style="fill: var(--color1, #fff)" d="M28.592 8.688h-7.635c-0.345 0-0.625 0.28-0.625 0.625s0.28 0.625 0.625 0.625h7.635c0.345 0 0.625-0.28 0.625-0.625s-0.28-0.625-0.625-0.625z"></path>
<path fill="#fff" style="fill: var(--color1, #fff)" d="M28.592 11.688h-7.635c-0.345 0-0.625 0.28-0.625 0.625s0.28 0.625 0.625 0.625h7.635c0.345 0 0.625-0.28 0.625-0.625s-0.28-0.625-0.625-0.625z"></path>
</symbol>
<symbol id="icon-arrow-up-fill" viewBox="0 0 32 32">
<path d="M17.333 16v10.667h-2.667v-10.667h-9.333l10.667-10.667 10.667 10.667h-9.333z"></path>
</symbol>
<symbol id="icon-checkbox-circle-fill" viewBox="0 0 32 32">
<path fill="#ff5300" style="fill: var(--color2, #ff5300)" d="M16 29.333c-7.364 0-13.333-5.969-13.333-13.333s5.969-13.333 13.333-13.333c7.364 0 13.333 5.969 13.333 13.333s-5.969 13.333-13.333 13.333zM14.671 21.333l9.427-9.428-1.885-1.885-7.541 7.543-3.772-3.772-1.885 1.885 5.657 5.657z"></path>
</symbol>
<symbol id="icon-code-line" viewBox="0 0 32 32">
<path d="M30.667 16l-9.428 9.428-1.885-1.885 7.543-7.543-7.543-7.543 1.885-1.885 9.428 9.428zM5.104 16l7.543 7.543-1.885 1.885-9.428-9.428 9.428-9.428 1.885 1.885-7.543 7.543z"></path>
</symbol>
<symbol id="icon-copyright-fill" viewBox="0 0 32 32">
<path d="M16 2.667c7.36 0 13.333 5.973 13.333 13.333s-5.973 13.333-13.333 13.333c-7.36 0-13.333-5.973-13.333-13.333s5.973-13.333 13.333-13.333zM16 5.333c-5.893 0-10.667 4.773-10.667 10.667s4.773 10.667 10.667 10.667c5.893 0 10.667-4.773 10.667-10.667s-4.773-10.667-10.667-10.667zM16 9.333c2.427 0 4.551 1.297 5.717 3.237l-2.285 1.372c-0.36-0.6-0.87-1.095-1.481-1.435s-1.3-0.516-1.999-0.507c-0.699 0.009-1.384 0.2-1.986 0.556s-1.1 0.863-1.445 1.472c-0.345 0.608-0.524 1.297-0.52 1.996s0.192 1.385 0.544 1.989 0.856 1.106 1.462 1.454c0.606 0.349 1.293 0.532 1.992 0.532 0.691 0 1.37-0.178 1.971-0.518s1.104-0.831 1.459-1.423l2.287 1.371c-0.749 1.251-1.889 2.223-3.243 2.764s-2.849 0.625-4.255 0.235c-1.406-0.389-2.645-1.229-3.528-2.39s-1.36-2.58-1.359-4.039c0-3.68 2.987-6.667 6.667-6.667z"></path>
</symbol>
<symbol id="icon-data-analytics" viewBox="0 0 32 32">
<path fill="#fff" style="fill: var(--color1, #fff)" d="M30.5 28h-0.5v-18c0-0.133-0.053-0.26-0.146-0.354s-0.221-0.146-0.354-0.146h-7.853c0.396-1.132 0.657-2.307 0.776-3.5h2.576c0.099-0 0.196-0.029 0.278-0.084s0.146-0.133 0.184-0.224 0.048-0.192 0.028-0.289c-0.019-0.097-0.067-0.186-0.137-0.256l-4-4c-0.094-0.094-0.221-0.146-0.353-0.146s-0.26 0.053-0.353 0.146l-4 4c-0.070 0.070-0.118 0.159-0.137 0.256s-0.009 0.197 0.028 0.289c0.038 0.091 0.102 0.169 0.184 0.224s0.179 0.084 0.278 0.084h1.579c-0.584 1.321-1.427 2.511-2.479 3.5h-13.6c-0.133 0-0.26 0.053-0.354 0.146s-0.146 0.221-0.146 0.354v18h-0.5c-0.133 0-0.26 0.053-0.354 0.146s-0.146 0.221-0.146 0.354v1c0 0.398 0.158 0.779 0.439 1.061s0.663 0.439 1.061 0.439h27c0.398 0 0.779-0.158 1.061-0.439s0.439-0.663 0.439-1.061v-1c0-0.133-0.053-0.26-0.146-0.354s-0.221-0.146-0.354-0.146zM19.788 5.67c0.027-0.076 0.036-0.157 0.026-0.236s-0.040-0.156-0.086-0.221c-0.046-0.066-0.107-0.119-0.179-0.157s-0.15-0.056-0.231-0.056h-1.111l2.793-2.793 2.793 2.793h-1.83c-0.127-0-0.25 0.048-0.342 0.135s-0.149 0.206-0.158 0.332c-0.23 3.3-1.589 6.42-3.85 8.834s-5.285 3.976-8.563 4.421l-1.55 0.206v-5.483c2.618 0.236 5.241-0.399 7.462-1.804s3.917-3.504 4.826-5.971zM3 10.5h11.864c-2.231 1.577-4.974 2.256-7.683 1.903l-0.114-0.016c-0.071-0.010-0.143-0.004-0.211 0.016s-0.132 0.055-0.186 0.102c-0.054 0.047-0.097 0.105-0.126 0.17s-0.045 0.136-0.045 0.207v6.617c0 0.133 0.053 0.26 0.146 0.354s0.221 0.146 0.354 0.146c0.022 0 0.044-0.001 0.066-0.004l2.114-0.281c2.638-0.36 5.138-1.398 7.255-3.013s3.779-3.752 4.823-6.201h7.743v17.5h-1v-16c0-0.133-0.053-0.26-0.146-0.354s-0.221-0.146-0.354-0.146h-5.5v1h5v15.5h-22v-15.5h1v-1h-1.5c-0.133 0-0.26 0.053-0.354 0.146s-0.146 0.221-0.146 0.354v16h-1v-17.5zM30 29.5c0 0.133-0.053 0.26-0.146 0.354s-0.221 0.146-0.354 0.146h-27c-0.133 0-0.26-0.053-0.354-0.146s-0.146-0.221-0.146-0.354v-0.5h28v0.5z"></path>
<path fill="#fff" style="fill: var(--color1, #fff)" d="M6 27.5h20v-1h-2v-11.5c0-0.133-0.053-0.26-0.146-0.354s-0.221-0.146-0.354-0.146h-3c-0.133 0-0.26 0.053-0.354 0.146s-0.146 0.221-0.146 0.354v11.5h-2v-7.5c0-0.133-0.053-0.26-0.146-0.354s-0.221-0.146-0.354-0.146h-3c-0.133 0-0.26 0.053-0.354 0.146s-0.146 0.221-0.146 0.354v7.5h-2v-5c0-0.133-0.053-0.26-0.146-0.354s-0.221-0.146-0.354-0.146h-3c-0.133 0-0.26 0.053-0.354 0.146s-0.146 0.221-0.146 0.354v5h-2v1zM21 15.5h2v11h-2v-11zM15 19.5h2v7h-2v-7zM9 22h2v4.5h-2v-4.5z"></path>
<path fill="#fff" style="fill: var(--color1, #fff)" d="M13.5 1h1v1h-1v-1z"></path>
<path fill="#fff" style="fill: var(--color1, #fff)" d="M14.5 2h1v1h-1v-1z"></path>
<path fill="#fff" style="fill: var(--color1, #fff)" d="M13.5 3h1v1h-1v-1z"></path>
<path fill="#fff" style="fill: var(--color1, #fff)" d="M12.5 2h1v1h-1v-1z"></path>
<path fill="#fff" style="fill: var(--color1, #fff)" d="M11.5 5h1v1h-1v-1z"></path>
<path fill="#fff" style="fill: var(--color1, #fff)" d="M30 6h1v1h-1v-1z"></path>
<path fill="#fff" style="fill: var(--color1, #fff)" d="M29 7h1v1h-1v-1z"></path>
<path fill="#fff" style="fill: var(--color1, #fff)" d="M28 6h1v1h-1v-1z"></path>
<path fill="#fff" style="fill: var(--color1, #fff)" d="M29 5h1v1h-1v-1z"></path>
<path fill="#fff" style="fill: var(--color1, #fff)" d="M27 3h1v1h-1v-1z"></path>
<path fill="#fff" style="fill: var(--color1, #fff)" d="M9 16h-1v1.5c0 0.133 0.053 0.26 0.146 0.354s0.221 0.146 0.354 0.146c1.709-0.074 3.363-0.623 4.778-1.584l-0.555-0.832c-1.114 0.75-2.39 1.226-3.723 1.391v-0.975z"></path>
<path fill="#fff" style="fill: var(--color1, #fff)" d="M8 14h1v1h-1v-1z"></path>
</symbol>
<symbol id="icon-facebook-fill" viewBox="0 0 32 32">
<path d="M18.667 18h3.333l1.333-5.333h-4.667v-2.667c0-1.373 0-2.667 2.667-2.667h2v-4.48c-0.435-0.057-2.076-0.187-3.809-0.187-3.62 0-6.191 2.209-6.191 6.267v3.733h-4v5.333h4v11.333h5.333v-11.333z"></path>
</symbol>
<symbol id="icon-file-line" viewBox="0 0 32 32">
<path d="M12 2.671v-0.004h14.664c0.736 0 1.336 0.607 1.336 1.323v24.021c-0 0.351-0.14 0.687-0.388 0.935s-0.585 0.387-0.936 0.387h-21.352c-0.175-0.001-0.348-0.037-0.51-0.105s-0.308-0.167-0.431-0.292c-0.123-0.125-0.22-0.272-0.286-0.435s-0.099-0.336-0.098-0.511v-17.324l8-7.996zM7.773 10.667h4.227v-4.227l-4.227 4.227zM14.667 5.333v6.667c0 0.354-0.141 0.693-0.391 0.943s-0.589 0.391-0.943 0.391h-6.667v13.333h18.667v-21.333h-10.667z"></path>
</symbol>
<symbol id="icon-instagram-fill" viewBox="0 0 32 32">
<path d="M16 2.667c3.623 0 4.075 0.013 5.496 0.080 1.42 0.067 2.387 0.289 3.237 0.62 0.88 0.339 1.621 0.797 2.363 1.537 0.678 0.667 1.203 1.473 1.537 2.363 0.329 0.849 0.553 1.817 0.62 3.237 0.063 1.421 0.080 1.873 0.080 5.496s-0.013 4.075-0.080 5.496c-0.067 1.42-0.291 2.387-0.62 3.237-0.334 0.89-0.859 1.697-1.537 2.363-0.667 0.678-1.473 1.202-2.363 1.537-0.849 0.329-1.817 0.553-3.237 0.62-1.421 0.063-1.873 0.080-5.496 0.080s-4.075-0.013-5.496-0.080c-1.42-0.067-2.387-0.291-3.237-0.62-0.89-0.334-1.697-0.859-2.363-1.537-0.678-0.666-1.203-1.473-1.537-2.363-0.331-0.849-0.553-1.817-0.62-3.237-0.063-1.421-0.080-1.873-0.080-5.496s0.013-4.075 0.080-5.496c0.067-1.421 0.289-2.387 0.62-3.237 0.334-0.89 0.858-1.697 1.537-2.363 0.666-0.678 1.473-1.203 2.363-1.537 0.851-0.331 1.816-0.553 3.237-0.62 1.421-0.063 1.873-0.080 5.496-0.080zM16 9.333c-1.768 0-3.464 0.702-4.714 1.953s-1.953 2.946-1.953 4.714c0 1.768 0.702 3.464 1.953 4.714s2.946 1.953 4.714 1.953 3.464-0.702 4.714-1.953c1.25-1.25 1.953-2.946 1.953-4.714s-0.702-3.464-1.953-4.714c-1.25-1.25-2.946-1.953-4.714-1.953zM24.667 9c0-0.442-0.176-0.866-0.488-1.178s-0.737-0.488-1.179-0.488c-0.442 0-0.866 0.176-1.179 0.488s-0.488 0.736-0.488 1.178c0 0.442 0.176 0.866 0.488 1.178s0.737 0.488 1.179 0.488c0.442 0 0.866-0.176 1.179-0.488s0.488-0.736 0.488-1.178zM16 12c1.061 0 2.078 0.421 2.828 1.172s1.172 1.768 1.172 2.828c0 1.061-0.421 2.078-1.172 2.828s-1.768 1.172-2.828 1.172c-1.061 0-2.078-0.421-2.828-1.172s-1.172-1.768-1.172-2.828c0-1.061 0.421-2.078 1.172-2.828s1.768-1.172 2.828-1.172z"></path>
</symbol>
<symbol id="icon-mail" viewBox="0 0 32 32">
<path stroke-linejoin="round" stroke-linecap="round" stroke-miterlimit="4" stroke-width="1.7778" d="M5.333 5.333h21.333c1.467 0 2.667 1.2 2.667 2.667v16c0 1.467-1.2 2.667-2.667 2.667h-21.333c-1.467 0-2.667-1.2-2.667-2.667v-16c0-1.467 1.2-2.667 2.667-2.667z"></path>
<path stroke-linejoin="round" stroke-linecap="round" stroke-miterlimit="4" stroke-width="1.7778" d="M29.333 8l-13.333 9.333-13.333-9.333"></path>
</symbol>
<symbol id="icon-man" viewBox="0 0 32 32">
<path fill="#fff" style="fill: var(--color1, #fff)" d="M30.5 3.5h-4.295l-2.35-2.355c-0.095-0.092-0.222-0.144-0.355-0.145h-21c-0.133 0-0.26 0.053-0.354 0.146s-0.146 0.221-0.146 0.354v0.655c0.001 0.727 0.185 1.442 0.534 2.080s0.853 1.178 1.466 1.57v0.195h-0.5c-0.397 0.001-0.778 0.16-1.059 0.441s-0.439 0.662-0.441 1.059v0.5c0.001 0.397 0.16 0.778 0.441 1.059s0.662 0.44 1.059 0.441h0.5v1c-0.002 0.591 0.114 1.177 0.34 1.724s0.557 1.043 0.975 1.461c0.212 0.206 0.441 0.393 0.685 0.56v0.395c0.002 0.43-0.136 0.85-0.393 1.195s-0.619 0.598-1.032 0.72l-1.080 0.325c-0.722 0.214-1.356 0.656-1.805 1.259s-0.692 1.337-0.69 2.091v10.27c0 0.133 0.053 0.26 0.146 0.354s0.221 0.146 0.354 0.146h29c0.133 0 0.26-0.053 0.354-0.146s0.146-0.221 0.146-0.354v-26.5c0-0.133-0.053-0.26-0.146-0.354s-0.221-0.146-0.354-0.146zM4 8.5h-0.5c-0.133 0-0.26-0.053-0.354-0.146s-0.146-0.221-0.146-0.354v-0.5c0-0.133 0.053-0.26 0.146-0.354s0.221-0.146 0.354-0.146h0.5v1.5zM24 2.705l2.795 2.795h-2.795v-2.795zM23 2v4c0 0.133 0.053 0.26 0.146 0.354s0.221 0.146 0.354 0.146h4v21h-11.5v-7.27c0.002-0.753-0.24-1.487-0.69-2.091s-1.083-1.046-1.805-1.259l-1.080-0.325c-0.413-0.122-0.775-0.375-1.032-0.72s-0.395-0.765-0.393-1.195v-0.4c0.615-0.411 1.119-0.968 1.468-1.62s0.532-1.38 0.532-2.12v-1h0.5c0.398-0.001 0.778-0.16 1.059-0.441s0.439-0.662 0.441-1.059v-0.5c-0.001-0.397-0.16-0.778-0.441-1.059s-0.662-0.439-1.059-0.441h-0.5v-1.5c0-0.466-0.093-0.927-0.274-1.357s-0.447-0.818-0.781-1.143h11.055zM8.5 16.965l-1.965-0.735c0.283-0.449 0.44-0.965 0.455-1.495 0.485 0.174 0.995 0.263 1.51 0.265 0.515-0.001 1.026-0.090 1.51-0.265 0.015 0.53 0.172 1.046 0.455 1.495l-1.965 0.735zM8.985 18.69l-0.235 0.31h-0.5l-0.235-0.31 0.485-0.485 0.485 0.485zM11.19 17.025c0.099 0.074 0.203 0.142 0.31 0.205l-0.695 1.865-1.405-1.4 1.79-0.67zM13 8.5v-1.5h0.5c0.133 0 0.26 0.053 0.354 0.146s0.146 0.221 0.146 0.354v0.5c0 0.133-0.053 0.26-0.146 0.354s-0.221 0.146-0.354 0.146h-0.5zM3 2.155v-0.155h6.5c0.328 0 0.653 0.065 0.957 0.19s0.579 0.31 0.811 0.542c0.232 0.232 0.416 0.508 0.542 0.811s0.19 0.628 0.19 0.957v1h-5.655c-0.887-0.001-1.737-0.354-2.364-0.981s-0.98-1.477-0.981-2.364zM5 10.5v-4.215c0.434 0.143 0.888 0.216 1.345 0.215h5.655v4c0 0.928-0.369 1.819-1.025 2.475s-1.547 1.025-2.475 1.025-1.819-0.369-2.475-1.025c-0.656-0.656-1.025-1.547-1.025-2.475zM5.815 17.025l1.785 0.67-1.405 1.4-0.695-1.865c0.105-0.065 0.215-0.13 0.315-0.205zM4.5 30v-8h-1v8h-1.5v-9.77c-0.002-0.538 0.171-1.062 0.493-1.493s0.776-0.746 1.292-0.897l0.785-0.235 0.96 2.57c0.030 0.079 0.079 0.149 0.143 0.204s0.14 0.093 0.222 0.111c0.035 0.006 0.070 0.009 0.105 0.010 0.133 0 0.26-0.052 0.355-0.145l0.945-0.95 0.175 0.23-1.41 10.365h-1.565zM7.075 30l1.36-10h0.13l1.36 10h-2.85zM15 30h-1.5v-8h-1v8h-1.565l-1.41-10.365 0.175-0.23 0.945 0.95c0.095 0.093 0.222 0.145 0.355 0.145 0.035-0.001 0.070-0.004 0.105-0.010 0.082-0.018 0.159-0.056 0.223-0.111s0.113-0.125 0.143-0.204l0.96-2.57 0.785 0.235c0.517 0.151 0.97 0.465 1.292 0.897s0.495 0.955 0.493 1.493v9.77zM30 30h-14v-1.5h12c0.133 0 0.26-0.053 0.354-0.146s0.146-0.221 0.146-0.354v-22c-0.001-0.133-0.053-0.26-0.145-0.355l-1.15-1.145h2.795v25.5z"></path>
<path fill="#fff" style="fill: var(--color1, #fff)" d="M16.035 11.5h-1.535v1h1.535c0.112 0.88 0.513 1.698 1.141 2.325s1.445 1.028 2.325 1.141v1.535h1v-1.535c0.88-0.112 1.698-0.513 2.325-1.141s1.028-1.445 1.141-2.325h1.535v-1h-1.535c-0.112-0.88-0.513-1.698-1.141-2.325s-1.445-1.028-2.325-1.141v-1.535h-1v1.535c-0.88 0.112-1.698 0.513-2.325 1.141s-1.028 1.445-1.141 2.325zM19.5 9.045v0.955h1v-0.955c0.613 0.105 1.178 0.397 1.618 0.837s0.732 1.005 0.837 1.618h-0.955v1h0.955c-0.105 0.613-0.397 1.178-0.837 1.618s-1.005 0.732-1.618 0.837v-0.955h-1v0.955c-0.613-0.105-1.178-0.397-1.618-0.837s-0.732-1.005-0.837-1.618h0.955v-1h-0.955c0.105-0.613 0.397-1.178 0.837-1.618s1.005-0.732 1.618-0.837z"></path>
<path fill="#fff" style="fill: var(--color1, #fff)" d="M25.5 19h-8.5v1h8.5v-1z"></path>
<path fill="#fff" style="fill: var(--color1, #fff)" d="M18.5 21h-1.5v1h1.5v-1z"></path>
<path fill="#fff" style="fill: var(--color1, #fff)" d="M25.5 21h-6v1h6v-1z"></path>
<path fill="#fff" style="fill: var(--color1, #fff)" d="M25.5 23h-8.5v1h8.5v-1z"></path>
<path fill="#fff" style="fill: var(--color1, #fff)" d="M8.5 13c1.122 0 2-0.659 2-1.5h-1c0 0.204-0.389 0.5-1 0.5s-1-0.296-1-0.5h-1c0 0.841 0.879 1.5 2 1.5z"></path>
<path fill="#fff" style="fill: var(--color1, #fff)" d="M7 9.5c0.133 0 0.26-0.053 0.354-0.146s0.146-0.221 0.146-0.354v-0.5c0-0.133-0.053-0.26-0.146-0.354s-0.221-0.146-0.354-0.146c-0.133 0-0.26 0.053-0.354 0.146s-0.146 0.221-0.146 0.354v0.5c0 0.133 0.053 0.26 0.146 0.354s0.221 0.146 0.354 0.146z"></path>
<path fill="#fff" style="fill: var(--color1, #fff)" d="M10 9.5c0.133 0 0.26-0.053 0.354-0.146s0.146-0.221 0.146-0.354v-0.5c0-0.133-0.053-0.26-0.146-0.354s-0.221-0.146-0.354-0.146c-0.133 0-0.26 0.053-0.354 0.146s-0.146 0.221-0.146 0.354v0.5c0 0.133 0.053 0.26 0.146 0.354s0.221 0.146 0.354 0.146z"></path>
</symbol>
<symbol id="icon-map-pin" viewBox="0 0 32 32">
<path stroke-linejoin="round" stroke-linecap="round" stroke-miterlimit="4" stroke-width="1.7778" d="M28 13.333c0 9.333-12 17.333-12 17.333s-12-8-12-17.333c0-3.183 1.264-6.235 3.515-8.485s5.303-3.515 8.485-3.515c3.183 0 6.235 1.264 8.485 3.515s3.515 5.303 3.515 8.485z"></path>
<path stroke-linejoin="round" stroke-linecap="round" stroke-miterlimit="4" stroke-width="1.7778" d="M16 17.333c2.209 0 4-1.791 4-4s-1.791-4-4-4c-2.209 0-4 1.791-4 4s1.791 4 4 4z"></path>
</symbol>
<symbol id="icon-menu-line" viewBox="0 0 32 32">
<path d="M4 5.333h24v2.667h-24v-2.667zM4 14.667h24v2.667h-24v-2.667zM4 24h24v2.667h-24v-2.667z"></path>
</symbol>
<symbol id="icon-message-circle" viewBox="0 0 32 32">
<path fill="#231f20" style="fill: var(--color3, #231f20)" d="M9.334 14.666c0-0.736 0.597-1.333 1.333-1.333s1.333 0.597 1.333 1.333c0 0.736-0.597 1.333-1.333 1.333s-1.333-0.597-1.333-1.333zM16 13.332c-0.736 0-1.333 0.597-1.333 1.333s0.597 1.333 1.333 1.333c0.736 0 1.333-0.597 1.333-1.333s-0.597-1.333-1.333-1.333zM21.334 13.332c-0.736 0-1.333 0.597-1.333 1.333s0.597 1.333 1.333 1.333c0.736 0 1.333-0.597 1.333-1.333s-0.597-1.333-1.333-1.333zM26.531 16.392c-0.676 4.339-4.173 7.937-8.505 8.749-2.092 0.395-4.223 0.169-6.156-0.649-0.548-0.232-1.115-0.349-1.671-0.349-0.253 0-0.504 0.024-0.751 0.073l-3.749 0.749 0.751-3.756c0.157-0.78 0.061-1.615-0.276-2.413-0.819-1.933-1.043-4.063-0.649-6.156 0.812-4.332 4.409-7.829 8.749-8.505 3.453-0.537 6.831 0.551 9.268 2.988 2.439 2.439 3.528 5.817 2.989 9.269zM25.429 5.238c-3.047-3.045-7.26-4.404-11.565-3.739-5.436 0.848-9.943 5.227-10.96 10.649-0.491 2.611-0.208 5.269 0.815 7.687 0.129 0.308 0.169 0.595 0.119 0.852l-1.144 5.717c-0.088 0.437 0.049 0.889 0.365 1.204 0.252 0.253 0.592 0.391 0.943 0.391 0.087 0 0.173-0.008 0.261-0.025l5.711-1.143c0.328-0.063 0.645 0.029 0.857 0.117 2.42 1.023 5.079 1.304 7.687 0.815 5.424-1.017 9.803-5.524 10.651-10.96 0.669-4.303-0.692-8.519-3.739-11.565z"></path>
<path fill="#0d1c2e" style="fill: var(--color4, #0d1c2e)" d="M0 0h32v32h-32v-32z"></path>
</symbol>
<symbol id="icon-person" viewBox="0 0 32 32">
<path fill="#231f20" style="fill: var(--color3, #231f20)" d="M18.667 9.333c0-1.471-1.196-2.667-2.667-2.667s-2.667 1.196-2.667 2.667c0 1.471 1.196 2.667 2.667 2.667s2.667-1.196 2.667-2.667zM21.333 9.333c0 2.941-2.392 5.333-5.333 5.333s-5.333-2.392-5.333-5.333c0-2.941 2.392-5.333 5.333-5.333s5.333 2.392 5.333 5.333zM6.667 26.667c0-5.147 4.188-9.333 9.333-9.333s9.333 4.187 9.333 9.333c0 0.736-0.596 1.333-1.333 1.333s-1.333-0.597-1.333-1.333c0-3.676-2.991-6.667-6.667-6.667s-6.667 2.991-6.667 6.667c0 0.736-0.596 1.333-1.333 1.333s-1.333-0.597-1.333-1.333z"></path>
<path fill="#0d1c2e" style="fill: var(--color4, #0d1c2e)" d="M0 0h32v32h-32v-32z"></path>
</symbol>
<symbol id="icon-phone-call" viewBox="0 0 32 32">
<path stroke-linejoin="round" stroke-linecap="round" stroke-miterlimit="4" stroke-width="1.7778" d="M20.067 6.667c1.302 0.254 2.499 0.891 3.437 1.829s1.575 2.135 1.829 3.437l-5.267-5.267zM20.067 1.333c2.706 0.301 5.229 1.512 7.155 3.436s3.141 4.445 3.445 7.151l-10.6-10.587zM29.333 22.56v4c0.002 0.371-0.075 0.739-0.223 1.079s-0.367 0.646-0.641 0.897c-0.274 0.251-0.597 0.442-0.948 0.561s-0.724 0.163-1.094 0.13c-4.103-0.446-8.044-1.848-11.507-4.093-3.222-2.047-5.953-4.778-8-8-2.253-3.478-3.656-7.439-4.093-11.56-0.033-0.369 0.010-0.74 0.129-1.091s0.308-0.673 0.558-0.947c0.25-0.273 0.553-0.492 0.892-0.641s0.705-0.227 1.075-0.227h4c0.647-0.006 1.274 0.223 1.765 0.645s0.811 1.008 0.902 1.649c0.169 1.28 0.482 2.537 0.933 3.747 0.179 0.477 0.218 0.996 0.112 1.495s-0.353 0.956-0.712 1.319l-1.693 1.693c1.898 3.338 4.662 6.102 8 8l1.693-1.693c0.363-0.358 0.82-0.605 1.319-0.712s1.017-0.067 1.494 0.112c1.21 0.451 2.467 0.765 3.747 0.933 0.648 0.091 1.239 0.418 1.662 0.917s0.648 1.136 0.631 1.79z"></path>
</symbol>
<symbol id="icon-search-line" viewBox="0 0 32 32">
<path d="M24.041 22.156l5.711 5.709-1.887 1.887-5.709-5.711c-2.124 1.703-4.767 2.629-7.489 2.625-6.624 0-12-5.376-12-12s5.376-12 12-12c6.624 0 12 5.376 12 12 0.004 2.723-0.922 5.365-2.625 7.489zM21.367 21.167c1.692-1.74 2.637-4.073 2.633-6.5 0-5.157-4.177-9.333-9.333-9.333-5.157 0-9.333 4.176-9.333 9.333 0 5.156 4.176 9.333 9.333 9.333 2.427 0.004 4.76-0.941 6.5-2.633l0.2-0.2z"></path>
</symbol>
<symbol id="icon-search" viewBox="0 0 32 32">
<path fill="#231f20" style="fill: var(--color3, #231f20)" d="M6.667 14.667c0-4.412 3.588-8 8-8s8 3.588 8 8c0 4.412-3.588 8-8 8s-8-3.588-8-8zM27.609 25.724l-4.527-4.528c1.404-1.805 2.251-4.068 2.251-6.529 0-5.881-4.785-10.667-10.667-10.667s-10.667 4.785-10.667 10.667c0 5.881 4.785 10.667 10.667 10.667 2.461 0 4.724-0.847 6.529-2.251l4.528 4.527c0.26 0.26 0.601 0.391 0.943 0.391s0.683-0.131 0.943-0.391c0.521-0.521 0.521-1.364 0-1.885z"></path>
<path fill="#0d1c2e" style="fill: var(--color4, #0d1c2e)" d="M0 0h32v32h-32v-32z"></path>
</symbol>
<symbol id="icon-send-plane-fill" viewBox="0 0 32 32">
<path d="M2.595 12.42c-0.696-0.232-0.703-0.607 0.013-0.845l25.449-8.483c0.705-0.235 1.109 0.16 0.912 0.851l-7.272 25.448c-0.2 0.705-0.607 0.729-0.905 0.060l-4.792-10.784 8-10.667-10.667 8-10.739-3.58z"></path>
</symbol>
<symbol id="icon-settings-4-line" viewBox="0 0 32 32">
<path d="M2.667 16c0-1.153 0.147-2.271 0.421-3.339 0.737 0.039 1.47-0.127 2.118-0.479s1.187-0.876 1.556-1.515c0.369-0.639 0.554-1.367 0.535-2.104s-0.242-1.455-0.643-2.074c1.612-1.586 3.601-2.735 5.78-3.34 0.335 0.658 0.845 1.21 1.474 1.596s1.353 0.59 2.091 0.59 1.462-0.204 2.091-0.59c0.629-0.386 1.139-0.938 1.474-1.596 2.179 0.605 4.168 1.754 5.78 3.34-0.402 0.619-0.625 1.337-0.644 2.075s0.166 1.466 0.535 2.105 0.908 1.163 1.557 1.515c0.649 0.352 1.382 0.517 2.119 0.478 0.275 1.067 0.421 2.184 0.421 3.337s-0.147 2.271-0.421 3.339c-0.737-0.039-1.47 0.127-2.118 0.478s-1.187 0.876-1.556 1.515c-0.369 0.639-0.554 1.367-0.535 2.105s0.242 1.455 0.643 2.074c-1.612 1.586-3.601 2.735-5.78 3.34-0.335-0.658-0.845-1.211-1.474-1.596s-1.353-0.59-2.091-0.59-1.462 0.204-2.091 0.59c-0.629 0.386-1.139 0.938-1.474 1.596-2.179-0.605-4.168-1.754-5.78-3.34 0.402-0.619 0.625-1.337 0.644-2.075s-0.166-1.466-0.535-2.105c-0.369-0.639-0.908-1.163-1.557-1.515s-1.382-0.517-2.119-0.478c-0.273-1.065-0.42-2.183-0.42-3.337zM9.072 20c0.84 1.455 1.080 3.128 0.752 4.699 0.544 0.387 1.123 0.721 1.729 1 1.222-1.095 2.806-1.7 4.447-1.699 1.68 0 3.251 0.628 4.447 1.699 0.607-0.279 1.185-0.613 1.729-1-0.337-1.605-0.069-3.279 0.752-4.699 0.819-1.421 2.135-2.489 3.693-3 0.062-0.665 0.062-1.335 0-2-1.559-0.511-2.875-1.579-3.695-3-0.821-1.42-1.089-3.093-0.752-4.699-0.544-0.387-1.123-0.722-1.729-1-1.222 1.095-2.805 1.699-4.445 1.699-1.641 0.001-3.224-0.604-4.447-1.699-0.607 0.278-1.185 0.613-1.729 1 0.337 1.605 0.069 3.279-0.752 4.699-0.819 1.421-2.135 2.489-3.693 3-0.062 0.665-0.062 1.335 0 2 1.559 0.511 2.875 1.579 3.695 3h-0.001zM16 20c-1.061 0-2.078-0.421-2.828-1.172s-1.172-1.768-1.172-2.828c0-1.061 0.421-2.078 1.172-2.828s1.768-1.172 2.828-1.172c1.061 0 2.078 0.421 2.828 1.172s1.172 1.768 1.172 2.828c0 1.061-0.421 2.078-1.172 2.828s-1.768 1.172-2.828 1.172zM16 17.333c0.354 0 0.693-0.141 0.943-0.391s0.391-0.589 0.391-0.943c0-0.354-0.141-0.693-0.391-0.943s-0.589-0.391-0.943-0.391c-0.354 0-0.693 0.141-0.943 0.391s-0.391 0.589-0.391 0.943c0 0.354 0.141 0.693 0.391 0.943s0.589 0.391 0.943 0.391z"></path>
</symbol>
<symbol id="icon-share-box-line" viewBox="0 0 32 32">
<path d="M13.333 4v2.667h-6.667v18.667h18.667v-6.667h2.667v8c0 0.354-0.141 0.693-0.391 0.943s-0.589 0.391-0.943 0.391h-21.333c-0.354 0-0.693-0.141-0.943-0.391s-0.391-0.589-0.391-0.943v-21.333c0-0.354 0.14-0.693 0.391-0.943s0.589-0.391 0.943-0.391h8zM23.448 6.667h-6.115v-2.667h10.667v10.667h-2.667v-6.115l-9.333 9.333-1.885-1.885 9.333-9.333z"></path>
</symbol>
<symbol id="icon-skype-fill" viewBox="0 0 32 32">
<path d="M17.747 27.2c-1.763 0.275-3.566 0.131-5.263-0.423s-3.238-1.499-4.5-2.761c-1.262-1.262-2.208-2.804-2.761-4.5s-0.698-3.5-0.423-5.263c-0.695-1.322-0.949-2.832-0.725-4.308s0.915-2.843 1.971-3.899c1.056-1.056 2.422-1.747 3.899-1.971s2.986 0.030 4.308 0.725c1.763-0.275 3.566-0.131 5.263 0.423s3.238 1.499 4.5 2.761c1.262 1.262 2.208 2.804 2.761 4.5s0.698 3.5 0.423 5.263c0.695 1.322 0.949 2.832 0.725 4.308s-0.915 2.843-1.971 3.899-2.422 1.747-3.899 1.971c-1.477 0.224-2.986-0.030-4.308-0.725zM16.069 22.875h-0.053c3.829 0 5.737-1.848 5.737-4.324 0-1.597-0.735-3.295-3.635-3.944l-2.644-0.587c-1.007-0.229-2.163-0.533-2.163-1.487s0.827-1.617 2.299-1.617c2.973 0 2.703 2.037 4.175 2.037 0.768 0 1.457-0.456 1.457-1.24 0-1.827-2.929-3.2-5.408-3.2-2.695 0-5.564 1.145-5.564 4.192 0 1.464 0.525 3.027 3.413 3.751l3.585 0.895c1.088 0.269 1.357 0.879 1.357 1.429 0 0.916-0.912 1.811-2.557 1.811-3.223 0-2.771-2.476-4.499-2.476-0.773 0-1.337 0.531-1.337 1.295 0 1.485 1.803 3.464 5.836 3.464v0.001z"></path>
</symbol>
<symbol id="icon-target" viewBox="0 0 32 32">
<path fill="#fff" style="fill: var(--color1, #fff)" d="M1.101 25.3l1.327 1.769-1.386 3.234c-0.084 0.196-0.035 0.424 0.124 0.567 0.094 0.085 0.215 0.13 0.336 0.13 0.083 0 0.166-0.020 0.241-0.062l10-5.5c0.16-0.088 0.259-0.256 0.259-0.438s-0.099-0.35-0.259-0.438l-10-5.5c-0.186-0.103-0.418-0.076-0.577 0.068s-0.208 0.371-0.124 0.567l1.386 3.234-1.327 1.769c-0.133 0.178-0.133 0.422 0 0.6zM3.36 27.429l4.694-1.104-5.522 3.037 0.828-1.933zM8.054 23.675l-4.694-1.104-0.828-1.933 5.522 3.037zM3.204 23.562l6.113 1.438-6.113 1.438-1.079-1.438 1.079-1.438z"></path>
<path fill="#fff" style="fill: var(--color1, #fff)" d="M23 1c-4.242 0-7.714 3.322-7.975 7.5h-1.318l-1.353-1.353-0.707 0.707 0.647 0.646h-2.043c-2.895 0-5.25 2.355-5.25 5.25s2.355 5.25 5.25 5.25h5.543l1.354 1.354 0.707-0.707-0.646-0.646h9.543c1.516 0 2.75 1.234 2.75 2.75s-1.234 2.75-2.75 2.75h-4.543l-1.354-1.353-0.707 0.707 0.646 0.646h-7.793v1h7.793l-0.646 0.646 0.707 0.707 1.354-1.353h4.543c2.068 0 3.75-1.682 3.75-3.75s-1.682-3.75-3.75-3.75h-9.543l0.646-0.646-0.707-0.707-1.354 1.354h-5.543c-2.343 0-4.25-1.907-4.25-4.25s1.907-4.25 4.25-4.25h2.043l-0.647 0.646 0.707 0.707 1.353-1.353h1.318c0.26 4.178 3.732 7.5 7.975 7.5 4.411 0 8-3.589 8-8s-3.589-8-8-8zM23 16c-3.691 0-6.717-2.874-6.975-6.5h1.5c0.254 2.799 2.611 5 5.475 5 3.033 0 5.5-2.467 5.5-5.5s-2.467-5.5-5.5-5.5c-2.864 0-5.221 2.201-5.475 5h-1.5c0.258-3.626 3.284-6.5 6.975-6.5 3.86 0 7 3.14 7 7s-3.14 7-7 7zM21.854 10.854l1.5-1.5c0.195-0.195 0.195-0.512 0-0.707l-1.5-1.5-0.707 0.707 0.646 0.646h-3.263c0.25-2.246 2.158-4 4.47-4 2.481 0 4.5 2.019 4.5 4.5s-2.019 4.5-4.5 4.5c-2.312 0-4.221-1.754-4.47-4h3.263l-0.646 0.646 0.707 0.707z"></path>
<path fill="#fff" style="fill: var(--color1, #fff)" d="M26 9c0-1.654-1.346-3-3-3v1c1.103 0 2 0.897 2 2s-0.897 2-2 2v1c1.654 0 3-1.346 3-3z"></path>
</symbol>
<symbol id="icon-timer" viewBox="0 0 32 32">
<path fill="#231f20" style="fill: var(--color3, #231f20)" d="M20 16h-2.667v-2.667c0-0.737-0.597-1.333-1.333-1.333s-1.333 0.596-1.333 1.333v4c0 0.737 0.597 1.333 1.333 1.333h4c0.736 0 1.333-0.596 1.333-1.333s-0.597-1.333-1.333-1.333zM16 26.333c-4.963 0-9-4.037-9-9s4.037-9 9-9c4.963 0 9 4.037 9 9s-4.037 9-9 9zM17.317 5.411c0.003-0.028 0.016-0.049 0.016-0.077v-1.333h1.333c0.736 0 1.333-0.596 1.333-1.333s-0.597-1.333-1.333-1.333h-5.333c-0.736 0-1.333 0.596-1.333 1.333s0.597 1.333 1.333 1.333h1.333v1.333c0 0.028 0.013 0.049 0.016 0.077-5.999 0.659-10.683 5.752-10.683 11.923 0 6.617 5.384 12 12 12s12-5.383 12-12c0-6.171-4.684-11.264-10.683-11.923z"></path>
<path fill="#0d1c2e" style="fill: var(--color4, #0d1c2e)" d="M0 0h32v32h-32v-32z"></path>
</symbol>
<symbol id="icon-twitter-fill" viewBox="0 0 32 32">
<path d="M29.549 7.541c-1.018 0.45-2.097 0.746-3.203 0.877 1.165-0.697 2.037-1.793 2.453-3.085-1.093 0.651-2.292 1.107-3.541 1.353-0.839-0.898-1.951-1.493-3.164-1.694s-2.457 0.005-3.541 0.585c-1.084 0.58-1.945 1.502-2.451 2.622s-0.627 2.376-0.345 3.572c-2.217-0.111-4.386-0.687-6.366-1.691s-3.727-2.413-5.127-4.136c-0.496 0.851-0.756 1.819-0.755 2.804 0 1.933 0.984 3.641 2.48 4.641-0.885-0.028-1.751-0.267-2.525-0.697v0.069c0 1.288 0.446 2.535 1.261 3.532s1.95 1.681 3.212 1.936c-0.822 0.223-1.684 0.255-2.52 0.096 0.356 1.108 1.049 2.078 1.983 2.772s2.062 1.080 3.226 1.101c-1.157 0.908-2.481 1.58-3.897 1.976s-2.897 0.509-4.357 0.333c2.549 1.639 5.516 2.509 8.547 2.507 10.257 0 15.867-8.497 15.867-15.867 0-0.24-0.007-0.483-0.017-0.72 1.092-0.789 2.034-1.767 2.783-2.887l-0.001-0.001z"></path>
</symbol>
<symbol id="icon-Vector" viewBox="0 0 32 32">
<path fill="#ff5300" style="fill: var(--color2, #ff5300)" d="M15.942 24.606l-9.234 5.657 2.51-10.558-8.216-7.059 10.784-0.867 4.155-10.022 4.155 10.022 10.786 0.867-8.217 7.059 2.51 10.558-9.234-5.657z"></path>
</symbol>
<symbol id="icon-Vector2" viewBox="0 0 32 32">
<path fill="#ff5300" style="fill: var(--color2, #ff5300)" d="M16.058 20.912l4.425 2.71-1.203-5.058 3.938-3.383-5.168-0.416-1.992-4.801v10.948zM16.058 24.606l-9.234 5.657 2.51-10.558-8.216-7.059 10.784-0.867 4.155-10.022 4.155 10.022 10.786 0.867-8.217 7.059 2.51 10.558-9.234-5.657z"></path>
</symbol>
<symbol id="icon-send-plane-fill" viewBox="0 0 32 32">
<path d="M2.595 12.42c-0.696-0.232-0.703-0.607 0.013-0.845l25.449-8.483c0.705-0.235 1.109 0.16 0.912 0.851l-7.272 25.448c-0.2 0.705-0.607 0.729-0.905 0.060l-4.792-10.784 8-10.667-10.667 8-10.739-3.58z"></path>
</symbol>
</defs>
</svg>
